<mxfile host="Electron" modified="2024-04-29T20:32:34.055Z" agent="Mozilla/5.0 (Windows NT 10.0; Win64; x64) AppleWebKit/537.36 (KHTML, like Gecko) draw.io/21.7.5 Chrome/114.0.5735.289 Electron/25.8.1 Safari/537.36" etag="Ec-11s4OeWFJzRz8d-k5" version="21.7.5" type="device">
  <diagram name="Page-1" id="Qfjni7uuc18_GlottmQc">
    <mxGraphModel dx="432" dy="530" grid="1" gridSize="10" guides="1" tooltips="1" connect="1" arrows="1" fold="1" page="1" pageScale="1" pageWidth="827" pageHeight="1169" math="0" shadow="0">
      <root>
        <mxCell id="0" />
        <mxCell id="1" parent="0" />
        <mxCell id="AL1xTxUywTu7NhGzItfY-1" value="MamiferoReal" style="swimlane;fontStyle=1;align=center;verticalAlign=top;childLayout=stackLayout;horizontal=1;startSize=26;horizontalStack=0;resizeParent=1;resizeParentMax=0;resizeLast=0;collapsible=1;marginBottom=0;whiteSpace=wrap;html=1;" vertex="1" parent="1">
          <mxGeometry x="50" y="360" width="310" height="320" as="geometry" />
        </mxCell>
        <mxCell id="AL1xTxUywTu7NhGzItfY-2" value="- id:String&lt;br&gt;- especie: String&lt;br&gt;- fechaNacimiento:Date" style="text;strokeColor=none;fillColor=none;align=left;verticalAlign=top;spacingLeft=4;spacingRight=4;overflow=hidden;rotatable=0;points=[[0,0.5],[1,0.5]];portConstraint=eastwest;whiteSpace=wrap;html=1;" vertex="1" parent="AL1xTxUywTu7NhGzItfY-1">
          <mxGeometry y="26" width="310" height="54" as="geometry" />
        </mxCell>
        <mxCell id="AL1xTxUywTu7NhGzItfY-3" value="" style="line;strokeWidth=1;fillColor=none;align=left;verticalAlign=middle;spacingTop=-1;spacingLeft=3;spacingRight=3;rotatable=0;labelPosition=right;points=[];portConstraint=eastwest;strokeColor=inherit;" vertex="1" parent="AL1xTxUywTu7NhGzItfY-1">
          <mxGeometry y="80" width="310" height="8" as="geometry" />
        </mxCell>
        <mxCell id="AL1xTxUywTu7NhGzItfY-4" value="+ getIdentificador():String&lt;br&gt;+ setIdentificador(id:String)&lt;br&gt;+ getEspecie():String&lt;br&gt;+ setEspecie(especie:String)&lt;br&gt;+ getFechaNacimiento():Date&lt;br&gt;+ setFechaNacimiento(fecha:Date)&lt;br&gt;+ getPadre():Mamifero&lt;br&gt;+ setPadre(padre:Mamifero)&lt;br&gt;+ getMadre():Mamifero&lt;br&gt;+ setMadre(madre:Mamifero)&lt;br&gt;+ getAbueloMaterno():Mamifero&lt;br&gt;+ getAbuelaMaterna():Mamifero&lt;br&gt;+ getAbueloPaterno():Mamifero&lt;br&gt;+ getAbuelaPaterna():Mamifero&lt;br&gt;+ tieneComoAncestroA(unMamifero: Mamifero):Boolean" style="text;strokeColor=none;fillColor=none;align=left;verticalAlign=top;spacingLeft=4;spacingRight=4;overflow=hidden;rotatable=0;points=[[0,0.5],[1,0.5]];portConstraint=eastwest;whiteSpace=wrap;html=1;" vertex="1" parent="AL1xTxUywTu7NhGzItfY-1">
          <mxGeometry y="88" width="310" height="232" as="geometry" />
        </mxCell>
        <mxCell id="AL1xTxUywTu7NhGzItfY-5" value="&amp;lt;&amp;lt;Interface&amp;gt;&amp;gt; Mamifero" style="swimlane;fontStyle=1;align=center;verticalAlign=top;childLayout=stackLayout;horizontal=1;startSize=26;horizontalStack=0;resizeParent=1;resizeParentMax=0;resizeLast=0;collapsible=1;marginBottom=0;whiteSpace=wrap;html=1;" vertex="1" parent="1">
          <mxGeometry x="258" y="10" width="310" height="290" as="geometry" />
        </mxCell>
        <mxCell id="AL1xTxUywTu7NhGzItfY-6" value="-" style="text;strokeColor=none;fillColor=none;align=left;verticalAlign=top;spacingLeft=4;spacingRight=4;overflow=hidden;rotatable=0;points=[[0,0.5],[1,0.5]];portConstraint=eastwest;whiteSpace=wrap;html=1;" vertex="1" parent="AL1xTxUywTu7NhGzItfY-5">
          <mxGeometry y="26" width="310" height="24" as="geometry" />
        </mxCell>
        <mxCell id="AL1xTxUywTu7NhGzItfY-7" value="" style="line;strokeWidth=1;fillColor=none;align=left;verticalAlign=middle;spacingTop=-1;spacingLeft=3;spacingRight=3;rotatable=0;labelPosition=right;points=[];portConstraint=eastwest;strokeColor=inherit;" vertex="1" parent="AL1xTxUywTu7NhGzItfY-5">
          <mxGeometry y="50" width="310" height="8" as="geometry" />
        </mxCell>
        <mxCell id="AL1xTxUywTu7NhGzItfY-8" value="+ getIdentificador():String&lt;br&gt;+ setIdentificador(id:String)&lt;br&gt;+ getEspecie():String&lt;br&gt;+ setEspecie(especie:String)&lt;br&gt;+ getFechaNacimiento():Date&lt;br&gt;+ setFechaNacimiento(fecha:Date)&lt;br&gt;+ getPadre():Mamifero&lt;br&gt;+ setPadre(padre:Mamifero)&lt;br&gt;+ getMadre():Mamifero&lt;br&gt;+ setMadre(madre:Mamifero)&lt;br&gt;+ getAbueloMaterno():Mamifero&lt;br&gt;+ getAbuelaMaterna():Mamifero&lt;br&gt;+ getAbueloPaterno():Mamifero&lt;br&gt;+ getAbuelaPaterna():Mamifero&lt;br&gt;+ tieneComoAncestroA(unMamifero: Mamifero):Boolean" style="text;strokeColor=none;fillColor=none;align=left;verticalAlign=top;spacingLeft=4;spacingRight=4;overflow=hidden;rotatable=0;points=[[0,0.5],[1,0.5]];portConstraint=eastwest;whiteSpace=wrap;html=1;" vertex="1" parent="AL1xTxUywTu7NhGzItfY-5">
          <mxGeometry y="58" width="310" height="232" as="geometry" />
        </mxCell>
        <mxCell id="AL1xTxUywTu7NhGzItfY-9" value="MamiferoNull" style="swimlane;fontStyle=1;align=center;verticalAlign=top;childLayout=stackLayout;horizontal=1;startSize=26;horizontalStack=0;resizeParent=1;resizeParentMax=0;resizeLast=0;collapsible=1;marginBottom=0;whiteSpace=wrap;html=1;" vertex="1" parent="1">
          <mxGeometry x="440" y="360" width="310" height="266" as="geometry" />
        </mxCell>
        <mxCell id="AL1xTxUywTu7NhGzItfY-11" value="" style="line;strokeWidth=1;fillColor=none;align=left;verticalAlign=middle;spacingTop=-1;spacingLeft=3;spacingRight=3;rotatable=0;labelPosition=right;points=[];portConstraint=eastwest;strokeColor=inherit;" vertex="1" parent="AL1xTxUywTu7NhGzItfY-9">
          <mxGeometry y="26" width="310" height="8" as="geometry" />
        </mxCell>
        <mxCell id="AL1xTxUywTu7NhGzItfY-12" value="+ getIdentificador():String&lt;br&gt;+ setIdentificador(id:String)&lt;br&gt;+ getEspecie():String&lt;br&gt;+ setEspecie(especie:String)&lt;br&gt;+ getFechaNacimiento():Date&lt;br&gt;+ setFechaNacimiento(fecha:Date)&lt;br&gt;+ getPadre():Mamifero&lt;br&gt;+ setPadre(padre:Mamifero)&lt;br&gt;+ getMadre():Mamifero&lt;br&gt;+ setMadre(madre:Mamifero)&lt;br&gt;+ getAbueloMaterno():Mamifero&lt;br&gt;+ getAbuelaMaterna():Mamifero&lt;br&gt;+ getAbueloPaterno():Mamifero&lt;br&gt;+ getAbuelaPaterna():Mamifero&lt;br&gt;+ tieneComoAncestroA(unMamifero: Mamifero):Boolean" style="text;strokeColor=none;fillColor=none;align=left;verticalAlign=top;spacingLeft=4;spacingRight=4;overflow=hidden;rotatable=0;points=[[0,0.5],[1,0.5]];portConstraint=eastwest;whiteSpace=wrap;html=1;" vertex="1" parent="AL1xTxUywTu7NhGzItfY-9">
          <mxGeometry y="34" width="310" height="232" as="geometry" />
        </mxCell>
        <mxCell id="AL1xTxUywTu7NhGzItfY-13" value="" style="endArrow=block;dashed=1;endFill=0;endSize=12;html=1;rounded=0;exitX=0.5;exitY=0;exitDx=0;exitDy=0;entryX=0.497;entryY=1.005;entryDx=0;entryDy=0;entryPerimeter=0;edgeStyle=orthogonalEdgeStyle;" edge="1" parent="1" source="AL1xTxUywTu7NhGzItfY-1" target="AL1xTxUywTu7NhGzItfY-8">
          <mxGeometry width="160" relative="1" as="geometry">
            <mxPoint x="340" y="380" as="sourcePoint" />
            <mxPoint x="410" y="310" as="targetPoint" />
            <Array as="points">
              <mxPoint x="205" y="320" />
              <mxPoint x="412" y="320" />
            </Array>
          </mxGeometry>
        </mxCell>
        <mxCell id="AL1xTxUywTu7NhGzItfY-14" value="" style="endArrow=block;dashed=1;endFill=0;endSize=12;html=1;rounded=0;exitX=0.5;exitY=0;exitDx=0;exitDy=0;entryX=0.495;entryY=1.001;entryDx=0;entryDy=0;entryPerimeter=0;edgeStyle=orthogonalEdgeStyle;" edge="1" parent="1" source="AL1xTxUywTu7NhGzItfY-9">
          <mxGeometry width="160" relative="1" as="geometry">
            <mxPoint x="596" y="361" as="sourcePoint" />
            <mxPoint x="412.44999999999993" y="301.2319999999999" as="targetPoint" />
            <Array as="points">
              <mxPoint x="595" y="320" />
              <mxPoint x="412" y="320" />
            </Array>
          </mxGeometry>
        </mxCell>
        <mxCell id="AL1xTxUywTu7NhGzItfY-15" value="" style="endArrow=classic;html=1;rounded=0;entryX=0;entryY=0.5;entryDx=0;entryDy=0;exitX=0.25;exitY=0;exitDx=0;exitDy=0;edgeStyle=orthogonalEdgeStyle;" edge="1" parent="1" source="AL1xTxUywTu7NhGzItfY-1" target="AL1xTxUywTu7NhGzItfY-8">
          <mxGeometry width="50" height="50" relative="1" as="geometry">
            <mxPoint x="240" y="370" as="sourcePoint" />
            <mxPoint x="290" y="320" as="targetPoint" />
          </mxGeometry>
        </mxCell>
        <mxCell id="AL1xTxUywTu7NhGzItfY-16" value="padre" style="text;html=1;align=center;verticalAlign=middle;resizable=0;points=[];autosize=1;strokeColor=none;fillColor=none;" vertex="1" parent="1">
          <mxGeometry x="125" y="188" width="50" height="30" as="geometry" />
        </mxCell>
        <mxCell id="AL1xTxUywTu7NhGzItfY-17" value="" style="endArrow=classic;html=1;rounded=0;exitX=0;exitY=0;exitDx=0;exitDy=0;entryX=0;entryY=0.5;entryDx=0;entryDy=0;edgeStyle=orthogonalEdgeStyle;" edge="1" parent="1" source="AL1xTxUywTu7NhGzItfY-1" target="AL1xTxUywTu7NhGzItfY-6">
          <mxGeometry width="50" height="50" relative="1" as="geometry">
            <mxPoint x="240" y="370" as="sourcePoint" />
            <mxPoint x="230" y="80" as="targetPoint" />
          </mxGeometry>
        </mxCell>
        <mxCell id="AL1xTxUywTu7NhGzItfY-18" value="madre" style="text;html=1;align=center;verticalAlign=middle;resizable=0;points=[];autosize=1;strokeColor=none;fillColor=none;" vertex="1" parent="1">
          <mxGeometry x="120" y="50" width="60" height="30" as="geometry" />
        </mxCell>
      </root>
    </mxGraphModel>
  </diagram>
</mxfile>
